<svg width="30" height="27" viewBox="0 0 30 27" fill="none" xmlns="http://www.w3.org/2000/svg">
<g id="Vector">
<path d="M5.87599 1.74635C5.01168 0.234842 3.08907 -0.28789 1.58172 0.578797C0.0743619 1.44548 -0.446934 3.37339 0.417371 4.8849L12.0725 25.2676C12.6679 26.3088 13.7656 26.8783 14.8837 26.8501C16.0019 26.8783 17.0995 26.3088 17.6949 25.2676L29.35 4.8849C30.2144 3.37339 29.6931 1.44549 28.1857 0.578799C26.6784 -0.287888 24.7557 0.234844 23.8914 1.74635L15.72 16.0367C15.3353 16.7094 14.3646 16.7078 13.9821 16.0337L5.87599 1.74635Z" fill="white"/>
<path d="M23.6235 18.1963C25.1308 17.3296 27.0534 17.8523 27.9177 19.3638L29.5826 22.2754C30.4469 23.7869 29.9257 25.7148 28.4183 26.5815C26.911 27.4482 24.9883 26.9254 24.124 25.4139L22.4591 22.5024C21.5948 20.9909 22.1161 19.063 23.6235 18.1963Z" fill="white"/>
<path d="M13.4517 0.418532C14.9591 -0.448165 16.8817 0.0745541 17.746 1.58606L19.4109 4.49758C20.2752 6.00908 19.7539 7.93699 18.2466 8.80369C16.7392 9.67039 14.8166 9.14767 13.9523 7.63617L12.2874 4.72464C11.4231 3.21314 11.9444 1.28523 13.4517 0.418532Z" fill="white"/>
</g>
</svg>
